PathFileType	4	(X/Y/Z)	 s10c0203.trc
DataRate	CameraRate	NumFrames	NumMarkers	Units	OrigDataRate	OrigDataStartFrame	OrigNumFrames
200	200	6	49	mm	200	1001	2000
Frame#	Time	racr			lacr			c7			jug			rlel			rdr			llel			ldr			s2			lic			ric			lasi			rasi			rpsi			lpsi			rgt			lgt			rth1			rth2			rth3			rth4			rlfc			rmfc			rsh1			rsh2			rsh3			rsh4			rlmal			rmmal			rcal			rtoe			rmt5			lth1			lth2			lth4			lth3			llfc			lmfc			llmal			lcal			lmt5			lsh1			lsh2			lsh3			lsh4			ltoe			SBIKE			LBIKE			RBIKE			
		X1	Y1	Z1	X2	Y2	Z2	X3	Y3	Z3	X4	Y4	Z4	X5	Y5	Z5	X6	Y6	Z6	X7	Y7	Z7	X8	Y8	Z8	X9	Y9	Z9	X10	Y10	Z10	X11	Y11	Z11	X12	Y12	Z12	X13	Y13	Z13	X14	Y14	Z14	X15	Y15	Z15	X16	Y16	Z16	X17	Y17	Z17	X18	Y18	Z18	X19	Y19	Z19	X20	Y20	Z20	X21	Y21	Z21	X22	Y22	Z22	X23	Y23	Z23	X24	Y24	Z24	X25	Y25	Z25	X26	Y26	Z26	X27	Y27	Z27	X28	Y28	Z28	X29	Y29	Z29	X30	Y30	Z30	X31	Y31	Z31	X32	Y32	Z32	X33	Y33	Z33	X34	Y34	Z34	X35	Y35	Z35	X36	Y36	Z36	X37	Y37	Z37	X38	Y38	Z38	X39	Y39	Z39	X40	Y40	Z40	X41	Y41	Z41	X42	Y42	Z42	X43	Y43	Z43	X44	Y44	Z44	X45	Y45	Z45	X46	Y46	Z46	X47	Y47	Z47	X48	Y48	Z48	X49	Y49	Z49	
1001	5.0050	436.212194	1267.594402	-57.053040	470.676278	1288.805209	-330.661457	409.546360	1309.775030	-200.878791	405.793843	1160.786725	-202.783079	421.087795	1022.135172	54.112819	601.668366	910.054082	6.982635	516.815371	1070.177678	-495.905245	630.756531	908.018519	-395.747183	-111.217837	1090.365137	-220.076586	44.377385	1109.314472	-384.968372	69.640394	1107.880838	-99.314935	81.822865	1024.190415	-363.965770	81.805548	1035.312101	-105.370282	-67.752082	1153.634140	-169.032292	-62.091969	1155.909731	-282.591193	-19.009351	1008.092873	-30.151538	-40.815544	956.732666	-409.674749	78.516644	906.451968	-2.984933	160.910329	874.902672	-14.983152	214.562643	808.380507	-16.808147	180.744129	904.859277	-28.341610	290.678042	737.569650	-30.750159	272.681259	723.816429	-147.751878	195.140511	668.426699	-5.565177	148.842479	595.255386	-27.761958	73.659371	553.967974	-35.689491	171.405765	579.285419	-54.865720	-4.808416	497.173947	-57.456421	24.716318	491.735783	-136.945989	-49.768117	520.068401	-108.250154	95.013046	325.097517	-95.376518	18.129984	369.152954	-37.083274	68.060301	858.579127	-411.605386	148.885850	831.747817	-393.048601	168.467635	862.748835	-388.823263	205.142291	766.231454	-371.566436	299.608707	711.972723	-343.691558	281.257810	705.346452	-230.319783	220.446850	342.315622	-371.413695	165.414608	303.715872	-334.771255	342.863653	269.303935	-384.443272	255.083338	598.367517	-383.502480	272.037861	513.272551	-373.457468	244.009593	429.733536	-378.481576	297.506561	513.005373	-345.338824	410.184533	309.334361	-328.615720	-204.283436	831.445164	-224.587826	-78.120652	81.823915	-423.705530	-102.617472	80.590785	-24.429130	
1002	5.0100	434.997800	1268.683477	-54.841773	471.475422	1288.978317	-327.765456	409.210161	1309.931577	-199.319147	406.321924	1161.211203	-200.317465	420.606046	1022.711549	54.957961	601.560264	910.188468	6.833674	519.381517	1071.774538	-495.532139	631.177140	907.834668	-395.536009	-110.935055	1089.950980	-223.954174	46.624637	1107.696333	-386.784747	67.900965	1107.729797	-100.864480	82.773861	1022.592883	-365.331029	80.700670	1035.085570	-106.743220	-68.841525	1153.016458	-172.788778	-61.403812	1154.918748	-286.334819	-20.470518	1009.006444	-32.034402	-39.292069	955.334086	-411.770340	78.387486	910.287259	-5.126919	162.737996	881.392696	-16.511028	217.775376	816.693496	-16.694414	180.247481	912.113556	-29.857255	295.354112	746.579797	-30.394227	279.665694	731.089532	-147.949220	200.232585	676.571536	-5.619163	153.253315	604.032555	-27.697459	77.823641	563.201345	-35.657299	175.628483	587.931668	-54.825406	-1.300543	507.167502	-57.594741	28.413813	501.678777	-137.185514	-45.929079	530.142490	-108.290725	98.412198	334.877602	-95.076673	21.667529	379.206048	-36.994613	65.924055	854.207019	-412.988450	146.390202	825.911539	-394.036395	166.268224	856.373451	-389.495217	200.622852	759.098894	-371.705694	293.240203	703.638845	-342.273849	275.522800	696.970159	-229.823796	217.333734	332.697591	-371.214772	162.316002	294.324490	-334.598906	339.687700	259.540915	-384.402463	248.722379	589.618367	-383.919046	266.651482	504.551560	-373.775968	239.474300	420.760182	-378.478395	292.194421	504.822729	-346.189330	407.248203	299.063307	-328.524578	-204.250927	831.403522	-224.716230	-78.133595	81.785128	-423.696562	-102.622078	80.602578	-24.442506	
1003	5.0150	433.834592	1269.680119	-52.581710	472.172480	1289.183334	-324.863717	408.914561	1310.056564	-197.752326	406.584806	1161.863322	-197.870718	420.553375	1023.294165	55.944654	601.344442	910.307106	6.699969	521.925060	1073.266019	-495.090661	631.621445	907.671875	-395.231404	-110.316093	1089.241039	-228.192013	49.180360	1106.300943	-388.481211	66.168535	1107.713415	-102.375649	84.231438	1021.217560	-366.470090	79.400261	1034.967618	-107.993336	-69.803583	1152.605308	-176.642220	-60.652176	1154.077761	-289.886027	-22.349867	1009.941074	-34.372236	-37.380400	954.419280	-413.736178	78.071014	914.389586	-7.354158	163.575026	888.221333	-17.868474	220.815856	825.211642	-16.636835	179.957410	918.836834	-32.332790	300.003091	755.559340	-30.187317	285.622797	738.821564	-147.942512	205.281897	685.235653	-5.323556	157.888547	612.952762	-27.507033	82.212695	572.451725	-35.620482	180.134288	596.784207	-54.724204	2.815883	516.934299	-57.652542	32.531631	511.452091	-137.111915	-41.835221	539.995669	-108.317630	103.554770	345.169558	-93.703256	25.724189	389.021114	-36.886639	63.835349	850.684434	-414.657059	144.089022	821.146591	-396.163790	163.906623	850.543171	-390.198380	195.934130	752.534201	-372.183955	286.748966	695.366830	-341.814461	268.763598	688.152289	-230.159123	213.595521	323.479325	-371.220641	158.645891	285.181000	-334.368138	335.896491	249.936059	-384.458678	242.213461	580.625766	-384.657534	260.802474	495.733372	-374.259192	233.918910	411.499667	-378.524343	286.618233	496.268216	-346.546191	403.690675	288.996665	-328.506787	-204.327030	831.185306	-224.721205	-78.141300	81.785793	-423.688095	-102.620958	80.589241	-24.442841	
1004	5.0200	432.709279	1270.532418	-50.308475	472.820729	1289.339722	-321.995470	408.533628	1310.364626	-196.059711	406.873293	1162.378105	-195.410939	420.081765	1023.897750	56.991987	601.111141	910.436395	6.598172	524.357987	1074.645130	-494.498658	632.049419	907.503411	-394.875629	-108.845311	1088.546375	-232.908737	51.977069	1105.121444	-390.034999	64.481452	1107.779701	-103.877790	85.701547	1019.939614	-367.040300	78.147730	1034.966704	-108.931101	-70.914675	1152.282741	-180.482618	-59.966298	1153.314842	-293.402533	-24.937167	1011.615565	-36.649309	-35.430782	953.737675	-415.692636	77.889672	918.963031	-9.295192	164.197702	894.801376	-19.670191	223.314593	833.820964	-16.410109	179.726760	925.764344	-34.422088	304.672301	764.752699	-30.570097	291.488336	747.007893	-147.931602	209.623018	694.303857	-5.121287	162.703813	622.119543	-27.220479	86.751144	581.981856	-35.550396	184.922223	605.834926	-54.517306	7.494528	526.399730	-57.661774	37.891771	521.361911	-137.216205	-37.204676	549.258493	-108.084013	107.964996	354.586061	-93.628169	30.173762	398.631246	-36.676947	62.003885	848.306588	-417.074022	141.093312	816.545047	-397.181963	161.471554	845.230086	-390.210523	190.906080	746.488358	-373.014551	280.074405	687.090179	-342.138188	261.795377	679.195269	-230.808822	209.195214	314.495507	-371.408682	154.517969	276.338185	-334.213302	331.489369	240.558925	-384.567731	235.623843	571.583662	-385.766235	254.548346	486.988064	-375.030479	227.512830	402.294740	-378.450514	280.580740	487.724148	-347.512949	399.570909	279.018898	-328.635567	-204.321643	831.175060	-224.878275	-78.126818	81.770812	-423.698339	-102.619516	80.590915	-24.447132	
1005	5.0250	431.717165	1271.230171	-48.003535	473.372436	1289.622782	-319.063524	408.283198	1310.585713	-194.057863	407.088554	1162.961109	-193.061130	419.647645	1024.214915	58.175543	600.893073	910.559196	6.541601	526.687588	1075.917269	-493.663103	632.392991	907.442072	-394.492199	-108.242860	1087.960605	-237.223859	54.969843	1104.066121	-391.510178	62.928926	1107.493431	-105.820686	87.204542	1018.822562	-367.112195	76.848793	1035.263599	-109.607119	-71.830391	1152.158833	-184.374954	-58.961188	1152.699835	-296.848139	-27.348342	1012.587052	-39.327085	-33.581312	953.154890	-417.473954	77.858484	923.091583	-12.293137	163.948738	902.134389	-20.627515	225.622841	842.455728	-17.093566	179.383049	932.602882	-36.356133	309.258861	774.347204	-30.535525	297.269639	755.821819	-147.818004	214.921892	703.567422	-5.069087	167.622929	631.527291	-27.085026	91.711839	591.480016	-35.432110	189.867613	615.151161	-54.207473	12.714153	535.991666	-57.402875	41.865254	530.240479	-136.904073	-32.157630	558.290379	-108.531670	113.033879	364.004143	-93.596071	35.275267	407.979006	-36.527955	60.154013	846.089726	-418.710716	137.215172	811.765393	-397.257977	159.011525	840.351811	-390.820015	185.824983	740.842301	-374.100935	273.225983	678.546113	-342.809976	254.509881	670.189597	-231.757343	204.143089	305.505186	-371.222164	149.768242	267.986361	-334.186865	326.584499	231.348918	-384.702015	228.762916	562.774634	-387.170488	247.980389	478.182910	-375.886209	221.225597	393.344297	-378.927569	274.167396	478.997894	-348.419714	394.870953	269.561526	-328.823006	-204.338238	831.163569	-225.000268	-78.145523	81.762163	-423.726053	-102.621269	80.586475	-24.458869	
1006	5.0300	430.790323	1271.970357	-45.676350	473.870823	1289.780093	-316.141408	408.135193	1311.046981	-191.117732	407.193255	1163.450164	-190.851311	419.346866	1024.495874	59.376473	600.654563	910.686246	6.547378	528.887058	1077.076205	-492.709400	632.638199	907.361637	-393.969558	-107.779215	1087.599635	-241.426951	58.109977	1102.966462	-392.879867	61.494241	1107.784522	-107.172127	88.758592	1017.832176	-367.026306	75.641123	1035.677396	-109.992743	-73.367463	1152.541114	-187.798977	-57.387489	1152.043942	-300.761936	-29.976992	1014.055605	-42.079444	-31.752570	952.750643	-419.225626	77.572669	927.632709	-14.750801	164.241469	908.717326	-22.624575	227.568329	851.069388	-17.580958	179.033676	940.036450	-37.339357	313.921871	784.490031	-30.102749	302.846309	765.102159	-147.754394	219.878633	713.261284	-4.967225	172.688368	640.972862	-26.802455	96.716588	600.980350	-35.322276	195.464310	624.561654	-53.641529	18.268555	544.988962	-57.248290	47.458796	539.402434	-136.718441	-26.156474	567.921285	-107.429868	119.286285	373.398418	-93.380011	41.048793	417.070768	-36.294051	58.537551	844.724626	-420.576801	134.260191	808.054693	-398.302235	157.615830	836.732497	-392.864813	180.621267	735.568155	-375.482336	266.295333	669.817622	-343.854479	246.580349	661.639253	-233.723306	198.377698	296.609807	-371.102059	144.505678	260.193494	-334.383031	321.112706	222.451405	-384.938442	221.876720	553.781133	-388.549697	241.242651	469.312898	-376.897003	215.149876	384.688828	-379.963550	267.543422	470.383529	-349.509116	389.673294	260.150331	-328.979544	-204.340940	831.160518	-225.078849	-78.142446	81.760863	-423.708626	-102.634091	80.605077	-24.465258	
